{"title":"Supergirl S01E03 1080p HDTV X264-DIMENSION [rartv]","uid":12746127,"size":2643223036,"categoryP":"video","categoryS":"hd___tv_shows","magnet":"?xt=urn:btih:ff3591dd79a54a23a9fea64e659ae185b441e102&amp;dn=Supergirl+S01E03+1080p+HDTV+X264-DIMENSION+%5Brartv%5D&amp;tr=udp%3A%2F%2Ftracker.leechers-paradise.org%3A6969&amp;tr=udp%3A%2F%2Fzer0day.ch%3A1337&amp;tr=udp%3A%2F%2Fopen.demonii.com%3A1337&amp;tr=udp%3A%2F%2Ftracker.coppersurfer.tk%3A6969&amp;tr=udp%3A%2F%2Fexodus.desync.com%3A6969","seeders":0,"leechers":1,"uploader":"cheerfulcaca","files":5,"time":1447312705,"description":"SEASON 1, EPISODE 3 SYNOPSIS:\r\n\r\n\r\nOne of Superman's enemies is gunning for Supergirl, whose powers are tested when the formidable Reactron arrives in National City; at the same time, Cat makes plans to run an exposé on the young hero.\r\n\r\n\r\nSERIES INFO:\r\n\r\n\r\n6.3/10 IMDb\r\n7.6/10 TV.com\r\n\r\nAt 12 years old, Kara Zor-El escapes doom on planet Krypton to find protection on Earth with the Danver family, where she grows up in the shadow of her foster sister, Alex, and learns to hide the extraordinary powers she shares with her cousin, Superman. Now an adult living in National City and working for media mogul Cat Grant, Kara finds her days of keeping her abilities a secret are over when super-secret agency head Hank Henshaw enlists her to help protect the city's citizens from threats. Finally coming into her own, Kara must juggle her new responsibilities with her very human relationships.\r\n\r\n\r\nMEDIA INFO:\r\n\r\n\r\nVideo:\r\n\r\nID : 1\r\nFormat : AVC\r\nFormat/Info : Advanced Video Codec\r\nFormat profile :   \r\nFormat settings, CABAC : Yes\r\nFormat settings, ReFrames : 4 frames\r\nCodec ID : V_MPEG4/ISO/AVC\r\nDuration : 44mn 28s\r\nBit rate : 7 383 Kbps\r\nWidth : 1 920 pixels\r\nHeight : 1 080 pixels\r\nDisplay aspect ratio : 16:9\r\nFrame rate mode : Constant\r\nFrame rate : 23.976 fps\r\nColor space : YUV\r\nChroma subsampling : 4:2:0\r\nBit depth : 8 bits\r\nScan type : Progressive\r\nBits/(Pixel*Frame) : 0.149\r\nStream size : 2.29 GiB (93%)\r\nWriting library : x264 core 148 r2638 7599210\r\nEncoding settings : cabac=1 / ref=4 / deblock=1:-3:-3 / analyse=0x3:0x133 / me=umh / subme=11 / psy=1 / psy_rd=1.00:0.00 / mixed_ref=1 / me_range=32 / chroma_me=1 / trellis=2 / 8x8dct=1 / cqm=0 / deadzone=21,11 / fast_pskip=0 / chroma_qp_offset=-2 / threads=20 / lookahead_threads=2 / sliced_threads=0 / nr=0 / decimate=1 / interlaced=0 / bluray_compat=0 / constrained_intra=0 / bframes=5 / b_pyramid=2 / b_adapt=2 / b_bias=0 / direct=3 / weightb=1 / open_gop=0 / weightp=2 / keyint=250 / keyint_min=23 / scenecut=40 / intra_refresh=0 / rc_lookahead=60 / rc=crf / mbtree=1 / crf=17.0 / qcomp=0.60 / qpmin=0 / qpmax=69 / qpstep=4 / ip_ratio=1.40 / aq=1:1.00\r\nLanguage : English\r\nDefault : Yes\r\nForced : No\r\nColor range : Limited\r\nMatrix coefficients : BT.709\r\nDURATION : 00:44:28.124000000\r\nNUMBER_OF_FRAMES : 63971\r\nNUMBER_OF_BYTES : 2514455137\r\n_STATISTICS_WRITING_APP : mkvmerge v8.4.0 ('A better way to fly') 64bit\r\n_STATISTICS_WRITING_DATE_UTC : 2015-11-09 21:41:20\r\n_STATISTICS_TAGS : BPS DURATION NUMBER_OF_FRAMES NUMBER_OF_BYTES\r\n\r\nAudio:\r\n\r\nID : 2\r\nFormat : AC-3\r\nFormat/Info : Audio Coding 3\r\nMode extension : CM (complete main)\r\nFormat settings, Endianness : Big\r\nCodec ID : A_AC3\r\nDuration : 44mn 28s\r\nBit rate mode : Constant\r\nBit rate : 384 Kbps\r\nChannel(s) : 6 channels\r\nChannel positions : Front: L C R, Side: L R, LFE\r\nSampling rate : 48.0 KHz\r\nCompression mode : Lossy\r\nStream size : 122 MiB (5%)\r\nDefault : Yes\r\nForced : No\r\n\r\nDOWNLOADED FROM:  https://rarbg.to","torrent":{"xt":"urn:btih:ff3591dd79a54a23a9fea64e659ae185b441e102","amp;dn":"Supergirl+S01E03+1080p+HDTV+X264-DIMENSION+%5Brartv%5D","amp;tr":["udp%3A%2F%2Ftracker.leechers-paradise.org%3A6969","udp%3A%2F%2Fzer0day.ch%3A1337","udp%3A%2F%2Fopen.demonii.com%3A1337","udp%3A%2F%2Ftracker.coppersurfer.tk%3A6969","udp%3A%2F%2Fexodus.desync.com%3A6969"],"infoHash":"ff3591dd79a54a23a9fea64e659ae185b441e102","infoHashBuffer":{"type":"Buffer","data":[255,53,145,221,121,165,74,35,169,254,166,78,101,154,225,133,180,65,225,2]},"announce":[],"urlList":[]}}